<mxfile host="app.diagrams.net" modified="2024-05-10T19:23:32.786Z" agent="Mozilla/5.0 (Windows NT 10.0; Win64; x64) AppleWebKit/537.36 (KHTML, like Gecko) Chrome/124.0.0.0 Safari/537.36" etag="oBkPqiiA2QfiEhOJGYxK" version="24.3.1" type="device">
  <diagram name="PÃ¡gina-1" id="tBvAOw226UZalQCnuRzu">
    <mxGraphModel dx="1050" dy="1384" grid="1" gridSize="10" guides="1" tooltips="1" connect="1" arrows="1" fold="1" page="1" pageScale="1" pageWidth="1169" pageHeight="827" math="0" shadow="0">
      <root>
        <mxCell id="0" />
        <mxCell id="1" parent="0" />
        <mxCell id="cEtJVAPyJuGEkXUsprwu-2" value="&lt;font style=&quot;font-size: 16px;&quot;&gt;Inicio&amp;nbsp;&lt;/font&gt;" style="strokeWidth=2;html=1;shape=mxgraph.flowchart.start_2;whiteSpace=wrap;" parent="1" vertex="1">
          <mxGeometry x="410" width="120" height="120" as="geometry" />
        </mxCell>
        <mxCell id="cEtJVAPyJuGEkXUsprwu-3" value="&lt;font style=&quot;font-size: 16px;&quot;&gt;A=INP1,B=INP2,&lt;/font&gt;&lt;div style=&quot;font-size: 16px;&quot;&gt;&lt;font style=&quot;font-size: 16px;&quot;&gt;C=INP3, D=INP4.&lt;/font&gt;&lt;/div&gt;" style="html=1;strokeWidth=2;shape=manualInput;whiteSpace=wrap;rounded=1;size=26;arcSize=11;" parent="1" vertex="1">
          <mxGeometry x="390" y="160" width="160" height="90" as="geometry" />
        </mxCell>
        <mxCell id="cEtJVAPyJuGEkXUsprwu-4" value="&lt;font style=&quot;font-size: 16px;&quot;&gt;X1=A+B&lt;/font&gt;&lt;div&gt;&lt;span style=&quot;font-size: 16px;&quot;&gt;X2=C+D&lt;/span&gt;&lt;/div&gt;" style="rounded=1;whiteSpace=wrap;html=1;absoluteArcSize=1;arcSize=14;strokeWidth=2;" parent="1" vertex="1">
          <mxGeometry x="390" y="314" width="160" height="100" as="geometry" />
        </mxCell>
        <mxCell id="cEtJVAPyJuGEkXUsprwu-5" value="&lt;span style=&quot;font-size: 16px;&quot;&gt;Y= X1/X2&lt;/span&gt;" style="rounded=1;whiteSpace=wrap;html=1;absoluteArcSize=1;arcSize=14;strokeWidth=2;" parent="1" vertex="1">
          <mxGeometry x="390" y="490" width="160" height="100" as="geometry" />
        </mxCell>
        <mxCell id="-iDguuzPJyuWLBvm2vXX-1" value="&lt;font style=&quot;font-size: 16px;&quot;&gt;Fin.&lt;/font&gt;" style="strokeWidth=2;html=1;shape=mxgraph.flowchart.start_2;whiteSpace=wrap;" vertex="1" parent="1">
          <mxGeometry x="760" y="670" width="120" height="120" as="geometry" />
        </mxCell>
        <mxCell id="-iDguuzPJyuWLBvm2vXX-3" value="" style="endArrow=classic;html=1;rounded=0;" edge="1" parent="1">
          <mxGeometry width="50" height="50" relative="1" as="geometry">
            <mxPoint x="469.5" y="250" as="sourcePoint" />
            <mxPoint x="470" y="310" as="targetPoint" />
          </mxGeometry>
        </mxCell>
        <mxCell id="-iDguuzPJyuWLBvm2vXX-4" value="" style="endArrow=classic;html=1;rounded=0;" edge="1" parent="1">
          <mxGeometry width="50" height="50" relative="1" as="geometry">
            <mxPoint x="469.5" y="590" as="sourcePoint" />
            <mxPoint x="469.5" y="670" as="targetPoint" />
          </mxGeometry>
        </mxCell>
        <mxCell id="-iDguuzPJyuWLBvm2vXX-5" value="" style="endArrow=classic;html=1;rounded=0;" edge="1" parent="1">
          <mxGeometry width="50" height="50" relative="1" as="geometry">
            <mxPoint x="469.5" y="120" as="sourcePoint" />
            <mxPoint x="469.5" y="160" as="targetPoint" />
          </mxGeometry>
        </mxCell>
        <mxCell id="-iDguuzPJyuWLBvm2vXX-6" value="" style="endArrow=classic;html=1;rounded=0;entryX=0.5;entryY=0;entryDx=0;entryDy=0;" edge="1" parent="1" target="cEtJVAPyJuGEkXUsprwu-5">
          <mxGeometry width="50" height="50" relative="1" as="geometry">
            <mxPoint x="470" y="414" as="sourcePoint" />
            <mxPoint x="470" y="474" as="targetPoint" />
          </mxGeometry>
        </mxCell>
        <mxCell id="-iDguuzPJyuWLBvm2vXX-7" value="&lt;font style=&quot;font-size: 16px;&quot;&gt;Y.&lt;/font&gt;" style="rounded=1;whiteSpace=wrap;html=1;absoluteArcSize=1;arcSize=14;strokeWidth=2;" vertex="1" parent="1">
          <mxGeometry x="390" y="670" width="160" height="100" as="geometry" />
        </mxCell>
        <mxCell id="-iDguuzPJyuWLBvm2vXX-8" value="" style="endArrow=classic;html=1;rounded=0;exitX=1;exitY=0.5;exitDx=0;exitDy=0;" edge="1" parent="1" source="-iDguuzPJyuWLBvm2vXX-7">
          <mxGeometry width="50" height="50" relative="1" as="geometry">
            <mxPoint x="590" y="720" as="sourcePoint" />
            <mxPoint x="750" y="720" as="targetPoint" />
          </mxGeometry>
        </mxCell>
      </root>
    </mxGraphModel>
  </diagram>
</mxfile>
